<?xml version="1.0" encoding="iso-8859-1"?>
<!-- Generator: Adobe Illustrator 19.0.0, SVG Export Plug-In . SVG Version: 6.00 Build 0)  -->
<svg version="1.1" id="Layer_1" xmlns="http://www.w3.org/2000/svg" xmlns:xlink="http://www.w3.org/1999/xlink" x="0px" y="0px"
	 viewBox="0 0 511.999 511.999" style="enable-background:new 0 0 511.999 511.999;" xml:space="preserve">
<path style="fill:#F7B239;" d="M509.028,238.725L467.004,63.395L309.83,151.71c-11.576,6.497-21.435,14.819-29.47,24.38
	c1.204,5.734,2.015,11.54,2.444,17.358c7.678-3.906,19.355,51.238,28.59,103.628c-9.95,6.746-21.098,11.856-33.073,14.92l47.4,74.88
	l98.937-18.312C484.779,357.429,523.286,298.178,509.028,238.725z"/>
<path style="fill:#995C0D;" d="M451.925,244.046c-0.919-3.16-4.224-4.978-7.389-4.058L389.37,256.04l54.02-123.678
	c1.317-3.017-0.06-6.531-3.077-7.848c-3.017-1.319-6.531,0.06-7.848,3.077l-31.806,72.819l-20.058-43.7
	c-1.373-2.992-4.914-4.303-7.904-2.93c-2.992,1.373-4.304,4.913-2.93,7.904l24.495,53.371l-38.784,88.796l-21.89-25.666
	l-0.562-0.656c-2.14-2.5-5.904-2.792-8.405-0.651c-2.501,2.141-2.792,5.904-0.651,8.405L350.17,316l-41.881,95.885
	c-1.317,3.017,0.06,6.531,3.076,7.849c0.776,0.34,1.587,0.5,2.383,0.5c2.298,0,4.487-1.336,5.466-3.576l27.442-62.829l56.045-17.793
	c3.138-0.995,4.875-4.347,3.878-7.484c-0.995-3.138-4.347-4.875-7.484-3.878l-46.096,14.634l30.157-69.043l64.71-18.83
	C451.028,250.516,452.844,247.208,451.925,244.046z"/>
<path style="fill:#F77D2B;" d="M329.06,282.06c-13.543,14.342-31.032,24.892-50.738,29.935c-8.429,2.146-17.251,3.29-26.335,3.29
	h-27.265v27.253c0,58.583-47.484,106.066-106.054,106.066H91.403V421.34c0-17.274,4.161-33.571,11.48-47.972
	c-30.102-2.194-59.584-14.783-82.605-37.803L0,315.286l20.279-20.291c13.567-13.555,29.363-23.497,46.22-29.828
	c-17.262-22.091-27.563-49.892-27.563-80.101V129.5h55.567c30.209,0,58.022,10.288,80.113,27.551
	c6.33-16.845,16.273-32.653,29.828-46.208l20.279-20.279l20.291,20.279c18.55,18.55,30.34,41.332,35.348,65.247
	c1.204,5.734,2.015,11.54,2.444,17.358c14.413-7.332,30.71-11.48,47.984-11.48h27.253v27.253
	C358.041,237.426,347.026,263.069,329.06,282.06z"/>
<g>
	<path style="fill:#995C0D;" d="M228.936,311.072L102.699,184.833c-2.326-2.327-6.103-2.327-8.429,0
		c-2.328,2.328-2.328,6.103,0,8.43L220.508,319.5l68.132,68.12c1.165,1.165,2.69,1.745,4.214,1.745s3.052-0.582,4.215-1.746
		c2.327-2.328,2.327-6.103-0.001-8.43L228.936,311.072z"/>
	<path style="fill:#995C0D;" d="M204.781,256.088c0.898,0.483,1.863,0.712,2.817,0.712c2.123,0,4.179-1.139,5.255-3.139
		c12.475-23.207,19.562-52.221,21.067-86.237c0.145-3.289-2.403-6.073-5.691-6.218c-3.253-0.148-6.074,2.402-6.218,5.691
		c-1.423,32.211-8.038,59.503-19.658,81.118C200.793,250.915,201.881,254.53,204.781,256.088z"/>
	<path style="fill:#995C0D;" d="M214.648,274.77c0.55,2.853,3.047,4.835,5.846,4.835c0.373,0,0.753-0.036,1.134-0.108
		c43.24-8.324,79.488-24.2,96.967-42.468c2.276-2.378,2.194-6.152-0.185-8.427c-2.382-2.277-6.155-2.191-8.427,0.186
		c-15.833,16.548-49.705,31.13-90.608,39.004C216.142,268.413,214.026,271.537,214.648,274.77z"/>
	<path style="fill:#995C0D;" d="M165.538,295.348c-1.558-2.901-5.172-3.99-8.072-2.434c-21.646,11.615-48.941,18.226-81.123,19.647
		c-3.289,0.145-5.837,2.929-5.691,6.218c0.141,3.2,2.779,5.697,5.95,5.697c0.088,0,0.178-0.001,0.268-0.006
		c33.985-1.502,62.998-8.585,86.234-21.052C166.005,301.862,167.095,298.25,165.538,295.348z"/>
	<path style="fill:#995C0D;" d="M184.218,305.213c-3.236-0.624-6.358,1.494-6.98,4.726c-7.872,40.892-22.457,74.764-39.016,90.606
		c-2.378,2.276-2.461,6.049-0.185,8.427c1.17,1.224,2.737,1.84,4.307,1.84c1.481,0,2.965-0.548,4.12-1.654
		c18.278-17.489,34.158-53.738,42.48-96.967C189.566,308.96,187.451,305.836,184.218,305.213z"/>
</g>
<g>
</g>
<g>
</g>
<g>
</g>
<g>
</g>
<g>
</g>
<g>
</g>
<g>
</g>
<g>
</g>
<g>
</g>
<g>
</g>
<g>
</g>
<g>
</g>
<g>
</g>
<g>
</g>
<g>
</g>
</svg>
