<svg class="svg-icon" style="width: 1em; height: 1em;vertical-align: middle;fill: currentColor;overflow: hidden;" viewBox="0 0 1024 1024" version="1.1" xmlns="http://www.w3.org/2000/svg"><path d="M113.778 398.222h796.444V113.778H739.556v-56.89h-56.89v56.89H284.445v-56.89h-56.888v56.89H56.889v739.555H455.11v-56.889H113.778V398.222z m0-227.555h113.778v56.889h56.888v-56.89h398.223v56.89h56.889v-56.89h113.777v170.667H113.778V170.667z" fill="#73777A" /><path d="M796.444 682.667V568.889h-56.888v170.667h170.666v-56.89zM227.556 455.11h113.777V568.89H227.556z m170.666 0H512V568.89H398.222zM227.556 625.778h113.777v113.778H227.556z" fill="#73777A" /><path d="M768 455.111c-142.222 0-256 113.778-256 256s113.778 256 256 256 256-113.778 256-256-113.778-256-256-256z m0 455.111c-108.089 0-199.111-91.022-199.111-199.11S659.91 512 768 512s199.111 91.022 199.111 199.111S876.09 910.222 768 910.222z" fill="#73777A" /></svg>