<svg class="svg-icon" style="width: 1em; height: 1em;vertical-align: middle;fill: currentColor;overflow: hidden;" viewBox="0 0 1024 1024" version="1.1" xmlns="http://www.w3.org/2000/svg"><path d="M670.5 309v332.5c0 8-3.5 15-8.5 20.5-5 5-12.5 8.5-20.5 8.5H157c-8 0-15-3.5-20.5-8.5-5-5-8.5-12.5-8.5-20.5V309h542.5z" fill="#BDBDBD" /><path d="M139.5 184.5h531.5v124.5H128.5V184.5h11.5-0.5z" fill="#FF3D00" /><path d="M139.5 322.5h531.5v-16.5H128.5v16.5h11.5-0.5z" fill="#DB3300" /><path d="M258 139.5c0-6 5-11.5 11.5-11.5 6 0 11.5 5 11.5 11.5v113c0 6-5 11.5-11.5 11.5-6 0-11.5-5-11.5-11.5V139.5zM388 139.5c0-6 5-11.5 11.5-11.5 6 0 11.5 5 11.5 11.5v113c0 6-5 11.5-11.5 11.5-6 0-11.5-5-11.5-11.5V139.5zM518 139.5c0-6 5-11.5 11.5-11.5 6 0 11.5 5 11.5 11.5v113c0 6-5 11.5-11.5 11.5-6 0-11.5-5-11.5-11.5V139.5z" fill="#0091EA" /><path d="M552.5 568.5v24.5H415.5c0-6 1-12 3-17.5 3.5-9.5 9-18.5 16.5-27.5s19-19.5 33.5-31.5c22.5-18.5 37.5-33 45.5-44s12-21 12-30.5c0-10-3.5-18.5-11-25.5-7-7-16.5-10.5-28-10.5-12 0-22 3.5-29.5 11s-11 17.5-11 30.5l-26-2.5c2-19.5 8.5-34.5 20-44.5s27.5-15.5 47-15.5c20 0 35.5 5.5 47 16.5s17.5 24.5 17.5 41c0 8.5-1.5 16.5-5 24.5s-9 16.5-17 25.5-21 21-39 36.5c-15 13-25 21.5-29.5 26s-8 9-11 13.5h102zM391.5 568.5v24.5H254.5c0-6 1-12 3-17.5 3.5-9.5 9-18.5 16.5-27.5s19-19.5 33.5-31.5c22.5-18.5 37.5-33 45.5-44s12-21 12-30.5c0-10-3.5-18.5-11-25.5-7-7-16.5-10.5-28-10.5-12 0-22 3.5-29.5 11s-11 17.5-11 30.5l-26-2.5c2-19.5 8.5-34.5 20-44.5s27.5-15.5 47-15.5c20 0 35.5 5.5 47 16.5s17.5 24.5 17.5 41c0 8.5-1.5 16.5-5 24.5s-9 16.5-17 25.5-21 21-39 36.5c-15 13-25 21.5-29.5 26s-8 9-11 13.5h102z" fill="#263238" /><path d="M670.5 435.5v206c0 8-3.5 15-8.5 20.5-5 5-12.5 8.5-20.5 8.5H385.5c14.5-132.5 130-235.5 270.5-235.5 5 0 9.5 0 14.5 0.5z" fill="#9F9F9F" /><path d="M552.5 568.5v24.5H415.5c0-6 1-12 3-17.5 3.5-9.5 9-18.5 16.5-27.5s19-19.5 33.5-31.5c21-17 35.5-31 44-41.5 12-7.5 25-14 38.5-19-1 4-2 7.5-3.5 11.5-3.5 8-9 16.5-17 25.5s-21 21-39 36.5c-15 13-25 21.5-29.5 26s-8 9-11 13.5h101.5v-0.5z" fill="#262F34" /><path d="M665.5 665.5m-201.5 0a201.5 201.5 0 1 0 403 0 201.5 201.5 0 1 0-403 0Z" fill="#B2EBF2" /><path d="M665.5 435c63.5 0 121 26 163 67.5 41.5 41.5 67.5 99.5 67.5 163s-26 121-67.5 163c-41.5 41.5-99.5 67.5-163 67.5s-121-26-163-67.5c-41.5-41.5-67.5-99.5-67.5-163s26-121 67.5-163c41.5-41.5 99.5-67.5 163-67.5z m0 29c111.5 0 201.5 90.5 201.5 201.5 0 111.5-90.5 201.5-201.5 201.5-111.5 0-201.5-90.5-201.5-201.5 0-111.5 90.5-201.5 201.5-201.5z" fill="#006064" /><path d="M665.5 493c3 0 5.5 2 5.5 5v166.5c0 2.5-2.5 5-5.5 5s-5.5-2-5.5-5V498c0-2.5 2.5-5 5.5-5z" fill="#263238" /><path d="M659 662c1.5-2.5 4.5-4 7-2.5l118 63.5c2.5 1.5 3 4.5 1.5 7s-4.5 4-7 2.5l-118-63.5c-2.5-1.5-3-4.5-1.5-7z" fill="#546E7A" /><path d="M665.5 665.5m-14.5 0a14.5 14.5 0 1 0 29 0 14.5 14.5 0 1 0-29 0Z" fill="#263238" /><path d="M516.5 754c-1 0.5-2.5 0-3-1s0-2.5 1-3l185.5-106.5c1-0.5 2.5 0 3 1s0 2.5-1 3l-185.5 106.5z" fill="#D50000" /><path d="M665.6 665.6m-7.35 0a7.35 7.35 0 1 0 14.7 0 7.35 7.35 0 1 0-14.7 0Z" fill="#D50000" /><path d="M665.5 464v403c-111.5 0-201.5-90.5-201.5-201.5 0-111.5 90.5-201.5 201.5-201.5z" fill="#A0DBE0" /><path d="M665.5 435v29c-111.5 0-201.5 90.5-201.5 201.5 0 111.5 90.5 201.5 201.5 201.5v29c-63.5 0-121-26-163-67.5-41.5-41.5-67.5-99.5-67.5-163s26-121 67.5-163c41.5-41.5 99.5-67.5 163-67.5z" fill="#005E60" /><path d="M665.5 493v176c-3 0-5.5-2-5.5-5V497.5c0-2.5 2.5-5 5.5-5v0.5z" fill="#223539" /><path d="M659 662c1.5-2.5 4-3.5 6.5-3v12.5l-4.5-2.5c-2.5-1.5-3-4.5-1.5-7h-0.5z" fill="#4C6B74" /><path d="M665.5 651v29c-8 0-14.5-6.5-14.5-14.5s6.5-14.5 14.5-14.5z" fill="#223539" /><path d="M516.5 754c-1 0.5-2.5 0-3-1s0-2.5 1-3l151.5-87v5l-149 85.5-0.5 0.5z" fill="#C00806" /><path d="M658.5 663.5c1-3.5 4-5.5 7-5.5v15c-0.5 0-1.5 0-2-0.5-4-1-6.5-5-5-9z" fill="#C00806" /></svg>